<?xml version="1.0" encoding="UTF-8" standalone="no"?>
<!DOCTYPE svg PUBLIC "-//W3C//DTD SVG 1.1//EN" "http://www.w3.org/Graphics/SVG/1.1/DTD/svg11.dtd">
<svg width="100%" height="100%" viewBox="0 0 1050 1050" version="1.1" xmlns="http://www.w3.org/2000/svg" xmlns:xlink="http://www.w3.org/1999/xlink" xml:space="preserve" style="fill-rule:evenodd;clip-rule:evenodd;stroke-linejoin:round;stroke-miterlimit:1.41421;">
    <g id="レイヤ1">
        <path d="M525,105C756.804,105 945,293.196 945,525C945,756.804 756.804,945 525,945C293.196,945 105,756.804 105,525C105,293.196 293.196,105 525,105ZM525,126C745.214,126 924,304.786 924,525C924,745.214 745.214,924 525,924C304.786,924 126,745.214 126,525C126,304.786 304.786,126 525,126ZM525,157.5C727.829,157.5 892.5,322.171 892.5,525C892.5,727.829 727.829,892.5 525,892.5C322.171,892.5 157.5,727.829 157.5,525C157.5,322.171 322.171,157.5 525,157.5Z" style="fill:rgb(33,33,33);"/>
        <path d="M525.176,715.423C545.107,715.423 561.288,731.604 561.288,751.534C561.288,771.465 545.107,787.646 525.176,787.646C505.246,787.646 489.065,771.465 489.065,751.534C489.065,731.604 505.246,715.423 525.176,715.423ZM555.122,632.773C553.545,648.443 540.356,660.372 524.607,660.372C524.607,660.463 524.606,660.463 524.606,660.463C516.218,660.463 508.216,656.943 502.548,650.76C496.88,644.577 494.067,636.3 494.794,627.944C496.468,608.924 499.254,586.982 503.157,576.966C508.324,563.343 516.662,549.603 528.171,535.745C536.626,525.646 551.834,510.908 573.795,491.531C595.755,472.154 610.024,456.711 616.6,445.202C623.177,433.693 626.465,421.128 626.465,407.505C626.465,382.843 616.835,361.176 597.576,342.504C578.316,323.832 554.711,314.496 526.762,314.496C499.751,314.496 477.203,322.951 459.118,339.862C445.876,352.244 435.97,369.727 429.402,392.31C424.83,407.655 409.877,417.482 393.978,415.591C393.958,415.614 393.941,415.612 393.925,415.61C384.179,414.451 375.448,409.032 370.086,400.812C364.723,392.592 363.28,382.418 366.147,373.031C375.084,343.171 389.918,319.076 410.676,300.756C439.683,275.154 478.026,262.354 525.705,262.354C576.202,262.354 616.483,276.094 646.547,303.574C676.61,331.054 691.642,364.289 691.642,403.277C691.642,425.825 686.357,446.611 675.788,465.636C665.219,484.661 644.55,507.796 613.782,535.041C593.113,553.361 579.608,566.866 573.266,575.556C566.925,584.247 562.227,594.229 559.174,605.503C557.375,612.146 556.024,621.236 555.122,632.773Z" style="fill:rgb(245,245,245);"/>
    </g>
</svg>
